<svg width="257" height="250" viewBox="0 0 257 250" fill="none" xmlns="http://www.w3.org/2000/svg">
<g clip-path="url(#clip0_1_2)">
<path d="M218.55 243.532C219.145 245.766 220.71 247.626 222.598 248.981C222.906 249.202 223.222 249.408 223.543 249.601C223.641 249.658 223.74 249.72 223.843 249.773C223.953 249.839 224.064 249.9 224.175 249.958H233.057C233.217 249.633 233.373 249.305 233.529 248.981C237.335 240.982 240.008 232.351 239.553 223.56C239.372 220.15 238.655 216.789 237.43 213.602C234.991 207.25 230.54 201.752 224.417 198.984C224.265 198.915 224.105 198.845 223.949 198.779C223.999 198.956 224.048 199.128 224.097 199.305C224.754 201.671 225.218 204.086 225.485 206.527C225.51 206.716 225.53 206.905 225.547 207.098C226.13 212.985 225.612 218.93 224.019 224.627C224.015 224.64 224.011 224.656 224.007 224.668C223.658 225.929 223.253 227.17 222.791 228.393C222.43 229.357 222.04 230.31 221.613 231.246C219.831 235.176 217.441 239.364 218.55 243.532Z" fill="white"/>
<path d="M223.838 198.964C223.925 199.079 224.011 199.19 224.097 199.305C225.901 201.695 227.432 204.278 228.663 207.008C228.729 207.143 228.79 207.279 228.844 207.418C230.531 211.23 231.614 215.28 232.055 219.425C232.06 219.453 232.062 219.482 232.063 219.511C232.166 220.48 232.227 221.457 232.252 222.435C232.343 224.266 232.145 226.101 231.665 227.871C231.227 229.316 230.459 230.641 229.423 231.739C229.32 231.85 229.217 231.961 229.107 232.067C229.024 232.154 228.934 232.24 228.848 232.322C228.018 233.115 227.111 233.85 226.331 234.7C225.973 235.081 225.65 235.493 225.366 235.931C224.912 236.666 224.619 237.489 224.505 238.345C224.392 239.202 224.462 240.072 224.709 240.9C225.267 242.977 226.544 244.731 227.85 246.402C228.503 247.24 229.176 248.085 229.759 248.981C229.973 249.301 230.17 249.625 230.351 249.958H230.868C230.696 249.625 230.507 249.301 230.301 248.981C228.803 246.62 226.672 244.591 225.567 241.992C224.82 240.239 224.594 238.251 225.538 236.531C225.815 236.031 226.15 235.565 226.536 235.143C227.288 234.293 228.187 233.566 229.004 232.798C229.209 232.605 229.41 232.408 229.603 232.203C230.627 231.163 231.416 229.918 231.919 228.549C232.489 226.81 232.758 224.986 232.716 223.157C232.716 221.991 232.654 220.817 232.539 219.651C232.527 219.503 232.51 219.351 232.494 219.199C231.654 211.861 228.866 204.881 224.417 198.984C224.335 198.869 224.249 198.759 224.163 198.648C223.986 198.418 223.662 198.738 223.838 198.964Z" fill="#1F75FE"/>
<path d="M232.328 219.689C233.751 219.451 235.042 218.714 235.971 217.611C236.9 216.508 237.407 215.111 237.401 213.669C237.4 213.61 237.377 213.554 237.335 213.512C237.294 213.47 237.238 213.446 237.179 213.445C237.12 213.444 237.063 213.465 237.02 213.505C236.977 213.545 236.951 213.6 236.948 213.659C236.956 215.002 236.483 216.303 235.616 217.329C234.748 218.354 233.543 219.035 232.217 219.25C231.929 219.297 232.042 219.736 232.328 219.689Z" fill="#1F75FE"/>
<path d="M229.537 231.822C227.12 230.133 225.429 227.595 224.801 224.715C224.739 224.429 224.299 224.541 224.361 224.826C225.021 227.822 226.786 230.459 229.304 232.211C229.544 232.378 229.776 231.988 229.537 231.822Z" fill="#1F75FE"/>
<path d="M228.799 206.96C228.268 207.167 227.694 207.239 227.128 207.169C226.562 207.1 226.023 206.891 225.558 206.561C225.32 206.391 225.089 206.782 225.325 206.95C225.841 207.312 226.437 207.542 227.062 207.621C227.687 207.699 228.321 207.623 228.91 207.4C228.967 207.383 229.016 207.346 229.047 207.294C229.077 207.243 229.087 207.182 229.074 207.124C229.059 207.066 229.022 207.016 228.97 206.985C228.919 206.955 228.857 206.945 228.799 206.96Z" fill="#1F75FE"/>
<path d="M193.034 214.842C193.178 214.953 193.326 215.064 193.47 215.179C195.419 216.671 197.244 218.319 198.927 220.106C199.058 220.242 199.189 220.381 199.317 220.521L199.321 220.525C203.31 224.856 206.465 229.887 208.625 235.365L208.638 235.402C208.642 235.414 208.646 235.422 208.65 235.435C209.506 237.627 210.197 239.881 210.715 242.177C211.216 244.419 211.627 246.821 212.411 248.981C212.53 249.313 212.662 249.642 212.801 249.958H231.057C230.995 249.633 230.93 249.305 230.864 248.981C229.935 244.223 228.484 239.582 226.536 235.143C226.47 234.995 226.405 234.847 226.331 234.7C225.325 232.506 224.143 230.398 222.795 228.397L222.795 228.395L222.794 228.394L222.793 228.393L222.791 228.393C222.051 227.3 221.257 226.246 220.41 225.235C218.214 222.622 215.62 220.372 212.723 218.567C212.707 218.554 212.686 218.546 212.67 218.534C206.905 214.957 200.072 213.253 193.539 214.727H193.535C193.367 214.764 193.203 214.801 193.034 214.842Z" fill="white"/>
<path d="M193.055 215.06C193.194 215.097 193.334 215.138 193.47 215.179C196.347 216.001 199.125 217.14 201.752 218.575C201.883 218.645 202.014 218.718 202.146 218.792C205.776 220.818 209.071 223.393 211.914 226.426C211.916 226.428 211.918 226.431 211.918 226.434C211.951 226.467 211.988 226.504 212.017 226.537C212.674 227.243 213.306 227.978 213.906 228.733C215.078 230.142 216.023 231.726 216.706 233.427C217.228 234.844 217.412 236.364 217.244 237.865C217.232 238.017 217.211 238.165 217.191 238.317C217.174 238.436 217.158 238.555 217.137 238.678C216.866 240.325 216.398 241.976 216.53 243.655C216.609 244.515 216.871 245.349 217.296 246.102C217.721 246.854 218.301 247.508 218.997 248.02C219.471 248.386 219.976 248.707 220.508 248.981C221.269 249.373 222.062 249.7 222.878 249.958H224.491C224.274 249.896 224.06 249.835 223.843 249.773C223.07 249.555 222.312 249.291 221.572 248.981C221.149 248.804 220.738 248.601 220.34 248.373C218.689 247.424 217.314 245.971 217.026 244.029C216.776 242.329 217.26 240.629 217.548 238.966C217.597 238.678 217.642 238.395 217.667 238.112C217.863 236.672 217.744 235.206 217.318 233.817C216.727 232.083 215.844 230.464 214.706 229.029C214.003 228.095 213.252 227.197 212.456 226.339C212.358 226.229 212.255 226.118 212.148 226.007C209.245 222.953 205.893 220.359 202.207 218.316H202.203C199.463 216.791 196.556 215.586 193.539 214.727H193.535C193.4 214.686 193.26 214.645 193.125 214.608C192.841 214.534 192.776 214.982 193.055 215.06Z" fill="#1F75FE"/>
<path d="M212.311 226.495C213.302 225.448 213.89 224.083 213.968 222.643C214.046 221.203 213.609 219.782 212.736 218.634C212.559 218.402 212.19 218.667 212.368 218.899C213.183 219.967 213.589 221.29 213.514 222.631C213.439 223.972 212.887 225.241 211.957 226.211C211.756 226.422 212.11 226.705 212.311 226.495Z" fill="#1F75FE"/>
<path d="M217.386 237.863C214.44 237.969 211.562 236.961 209.326 235.04C209.105 234.849 208.821 235.203 209.042 235.393C211.372 237.388 214.369 238.431 217.435 238.314C217.727 238.302 217.677 237.852 217.386 237.863Z" fill="#1F75FE"/>
<path d="M201.829 218.456C201.529 218.941 201.114 219.345 200.621 219.63C200.127 219.915 199.57 220.072 199 220.089C198.708 220.097 198.759 220.548 199.049 220.54C199.679 220.519 200.293 220.344 200.839 220.03C201.385 219.716 201.846 219.274 202.182 218.741C202.218 218.693 202.234 218.634 202.228 218.574C202.221 218.515 202.193 218.461 202.147 218.422C202.1 218.384 202.041 218.367 201.981 218.373C201.921 218.38 201.866 218.41 201.829 218.456Z" fill="#1F75FE"/>
<path d="M44.6197 238.777C43.5838 242.663 40.8617 245.9 37.5753 248.257C37.0395 248.643 36.4894 249 35.9321 249.336C35.7606 249.436 35.5892 249.543 35.4105 249.636C35.2176 249.751 35.0247 249.858 34.8319 249.958H19.3785C19.0998 249.393 18.8283 248.822 18.5568 248.257C11.934 234.34 7.28293 219.323 8.07594 204.026C8.39056 198.093 9.63703 192.247 11.7696 186.701C16.0134 175.649 23.758 166.082 34.4103 161.267C34.6746 161.145 34.9533 161.024 35.2248 160.91C35.139 161.217 35.0533 161.517 34.9676 161.824C33.8248 165.941 33.0172 170.144 32.5528 174.391C32.5099 174.72 32.4742 175.049 32.4456 175.384C31.4306 185.628 32.3319 195.97 35.1033 205.884C35.1105 205.905 35.1176 205.934 35.1248 205.955C35.7321 208.149 36.437 210.309 37.2395 212.435C37.8682 214.114 38.547 215.772 39.29 217.401C42.3907 224.238 46.5487 231.525 44.6197 238.777Z" fill="white"/>
<path d="M35.4177 161.231C35.2677 161.431 35.1176 161.624 34.9676 161.824C31.8296 165.983 29.165 170.478 27.023 175.227C26.9087 175.463 26.8015 175.699 26.7087 175.942C23.7737 182.573 21.8888 189.621 21.1217 196.832C21.1134 196.882 21.1086 196.932 21.1074 196.982C20.9288 198.668 20.8217 200.368 20.7788 202.069C20.6931 205.248 20.8931 208.47 21.8004 211.528C22.5625 214.043 23.8978 216.347 25.7013 218.258C25.8799 218.451 26.0585 218.644 26.2514 218.83C26.3943 218.98 26.5514 219.13 26.7015 219.273C28.1447 220.651 29.7236 221.93 31.081 223.409C31.7032 224.072 32.2651 224.79 32.76 225.553C34.4246 228.16 34.7033 231.239 33.9031 234.197C32.9314 237.812 30.7095 240.863 28.4376 243.771C27.3017 245.228 26.13 246.7 25.1154 248.258C24.7439 248.815 24.401 249.379 24.0867 249.958H23.1865C23.4865 249.379 23.8152 248.815 24.1724 248.258C26.7801 244.149 30.488 240.62 32.4099 236.098C33.7102 233.047 34.1031 229.589 32.4599 226.596C31.9783 225.725 31.3956 224.915 30.7238 224.181C29.4164 222.702 27.8517 221.437 26.43 220.101C26.0728 219.766 25.7227 219.423 25.3869 219.065C23.6067 217.257 22.2329 215.089 21.3575 212.707C20.2929 209.713 19.9715 206.484 19.9715 203.326C19.9715 201.297 20.0786 199.254 20.2787 197.225C20.3001 196.968 20.3287 196.703 20.3572 196.439C21.8183 183.671 26.6706 171.527 34.4103 161.267C34.5532 161.067 34.7033 160.874 34.8533 160.681C35.1605 160.281 35.7249 160.838 35.4177 161.231Z" fill="#1F75FE"/>
<path d="M20.6456 197.292C18.171 196.877 15.9247 195.595 14.3079 193.676C12.6911 191.757 11.809 189.326 11.8193 186.817C11.8206 186.714 11.8617 186.617 11.9337 186.544C12.0058 186.471 12.1032 186.429 12.2055 186.427C12.3078 186.425 12.407 186.463 12.4822 186.532C12.5573 186.601 12.6026 186.697 12.6084 186.8C12.5946 189.136 13.4164 191.401 14.9257 193.185C16.4349 194.968 18.5321 196.154 20.8387 196.527C21.3399 196.609 21.1439 197.374 20.6456 197.292Z" fill="#1F75FE"/>
<path d="M25.503 218.402C29.7072 215.463 32.6494 211.048 33.7427 206.036C33.8507 205.54 34.6157 205.733 34.5079 206.229C33.3603 211.442 30.2892 216.031 25.9075 219.079C25.4897 219.37 25.0874 218.69 25.503 218.402Z" fill="#1F75FE"/>
<path d="M26.7866 175.144C27.7106 175.504 28.7096 175.629 29.6939 175.508C30.6782 175.387 31.6171 175.023 32.426 174.449C32.84 174.154 33.2418 174.833 32.8306 175.127C31.9338 175.757 30.8965 176.157 29.8093 176.293C28.7221 176.43 27.618 176.298 26.5936 175.909C26.4939 175.88 26.4089 175.815 26.3558 175.726C26.3027 175.637 26.2854 175.531 26.3075 175.43C26.3336 175.328 26.3986 175.242 26.4883 175.188C26.578 175.135 26.6852 175.119 26.7866 175.144Z" fill="#1F75FE"/>
<path d="M89.0152 188.859C88.7651 189.052 88.5079 189.245 88.2579 189.445C84.8659 192.04 81.6905 194.908 78.7629 198.018C78.5343 198.254 78.3057 198.497 78.0842 198.739L78.077 198.747C71.1355 206.282 65.6469 215.036 61.8878 224.567L61.8663 224.631C61.8592 224.652 61.8521 224.667 61.8449 224.688C60.3549 228.503 59.1536 232.424 58.2512 236.419C57.3796 240.32 56.6652 244.5 55.3006 248.258C55.0934 248.836 54.8648 249.408 54.6219 249.958H22.8578C22.9649 249.393 23.0792 248.822 23.1936 248.258C24.8939 239.977 27.2802 231.811 30.7238 224.181C30.8381 223.924 30.9524 223.666 31.081 223.409C32.8306 219.593 34.8878 215.925 37.2324 212.442L37.2329 212.44L37.2344 212.437L37.2367 212.436L37.2395 212.435C38.5269 210.535 39.91 208.701 41.3833 206.941C45.2042 202.395 49.7177 198.48 54.7577 195.339C54.7862 195.317 54.822 195.303 54.8506 195.282C64.8813 189.059 76.7696 186.094 88.1364 188.659H88.1436C88.4365 188.723 88.7223 188.787 89.0152 188.859Z" fill="white"/>
<path d="M88.9795 189.237C88.7366 189.302 88.4937 189.373 88.2579 189.445C83.2508 190.875 78.4178 192.857 73.8476 195.353C73.619 195.474 73.3903 195.603 73.1617 195.732C66.8458 199.257 61.1126 203.737 56.1651 209.013C56.1612 209.017 56.1587 209.022 56.158 209.027C56.1008 209.085 56.0365 209.149 55.9865 209.206C54.8434 210.435 53.7431 211.714 52.7001 213.028C50.7282 215.515 48.9421 218.208 47.8276 221.194C46.9197 223.661 46.5993 226.305 46.8917 228.918C46.9131 229.182 46.9488 229.439 46.9846 229.703C47.0131 229.911 47.0417 230.118 47.0774 230.332C47.5489 233.197 48.3634 236.069 48.1348 238.991C47.8919 242.078 46.263 244.707 43.841 246.586C43.0176 247.222 42.1375 247.782 41.2118 248.257C39.8883 248.94 38.5092 249.509 37.0895 249.958H34.2817C34.6604 249.851 35.0319 249.744 35.4106 249.636C36.7542 249.257 38.0736 248.797 39.3614 248.257C40.0971 247.95 40.8129 247.597 41.5047 247.2C44.3768 245.55 46.7702 243.021 47.2703 239.641C47.7061 236.684 46.863 233.726 46.363 230.832C46.2772 230.332 46.1986 229.839 46.1558 229.346C45.8146 226.841 46.0218 224.291 46.763 221.873C47.7132 218.837 49.3993 216.072 51.3069 213.543C52.5311 211.917 53.8379 210.355 55.222 208.863C55.3935 208.67 55.5721 208.477 55.7579 208.284C60.8094 202.97 66.642 198.458 73.0545 194.903H73.0617C77.8297 192.249 82.888 190.153 88.1364 188.659H88.1436C88.3793 188.587 88.6222 188.516 88.858 188.451C89.351 188.323 89.4653 189.102 88.9795 189.237Z" fill="#1F75FE"/>
<path d="M55.4753 209.134C53.7497 207.312 52.7278 204.937 52.5922 202.431C52.4566 199.925 53.2161 197.453 54.735 195.456C55.0437 195.053 55.6846 195.514 55.3755 195.917C53.9576 197.775 53.2504 200.077 53.3814 202.41C53.5125 204.743 54.4732 206.953 56.0901 208.64C56.441 209.007 55.8242 209.499 55.4753 209.134Z" fill="#1F75FE"/>
<path d="M46.6443 228.913C51.7705 229.098 56.778 227.344 60.6683 224.001C61.0535 223.669 61.5477 224.285 61.163 224.616C57.1081 228.087 51.8934 229.902 46.5594 229.698C46.051 229.678 46.1387 228.894 46.6443 228.913Z" fill="#1F75FE"/>
<path d="M73.7136 195.147C74.2344 195.991 74.9567 196.692 75.8156 197.188C76.6744 197.684 77.643 197.959 78.6344 197.988C79.1427 198.001 79.0545 198.786 78.5494 198.772C77.4543 198.735 76.385 198.431 75.4348 197.885C74.4847 197.339 73.6827 196.569 73.0988 195.642C73.0365 195.559 73.008 195.455 73.0191 195.352C73.0303 195.249 73.0803 195.154 73.1589 195.087C73.2406 195.022 73.3447 194.992 73.4486 195.003C73.5525 195.014 73.6477 195.066 73.7136 195.147Z" fill="#1F75FE"/>
<path d="M256.908 249.511C256.908 249.576 256.895 249.639 256.871 249.699C256.847 249.758 256.811 249.812 256.765 249.857C256.72 249.903 256.666 249.939 256.606 249.963C256.547 249.988 256.483 250 256.419 250H0.48863C0.359037 250 0.234751 249.949 0.143115 249.857C0.0514797 249.765 0 249.641 0 249.511C0 249.382 0.0514797 249.257 0.143115 249.166C0.234751 249.074 0.359037 249.023 0.48863 249.023H256.419C256.483 249.023 256.547 249.035 256.606 249.06C256.666 249.084 256.72 249.12 256.765 249.165C256.811 249.211 256.847 249.265 256.871 249.324C256.895 249.384 256.908 249.447 256.908 249.511Z" fill="#1F75FE"/>
<path d="M158.124 67.3339H126.096C124.672 64.6832 122.52 62.4218 126.096 57.0967C126.096 53.5618 127.468 50.1648 129.922 47.621C132.377 45.0773 135.723 43.5852 139.255 43.459C146.183 41.3883 151.173 45.593 152.529 52.3289L158.124 67.3339Z" fill="black"/>
<path d="M94.622 72.8965C95.2044 72.9606 95.7657 73.1516 96.2662 73.4561C96.7668 73.7605 97.1946 74.1711 97.5193 74.6587C97.8441 75.1464 98.058 75.6993 98.1459 76.2785C98.2339 76.8578 98.1937 77.4493 98.0283 78.0114L122.884 98.6847L115.978 101.345L92.7648 80.6806C91.839 80.3402 91.0703 79.672 90.6042 78.8027C90.1381 77.9333 90.0071 76.9232 90.2361 75.9637C90.465 75.0042 91.0379 74.162 91.8463 73.5967C92.6546 73.0314 93.6423 72.7823 94.622 72.8965Z" fill="#FFB6B6"/>
<path d="M123.414 107.612C117.906 107.613 96.4173 85.0952 95.4796 84.1096L95.2412 83.859L103.196 81.7309L122.279 95.5676L129.235 83.7948C130.004 82.4966 131.156 81.4679 132.533 80.8497C133.909 80.2315 135.443 80.054 136.924 80.3415C138.236 80.5976 139.451 81.2083 140.44 82.1072C141.428 83.0061 142.151 84.1588 142.529 85.4399C142.908 86.721 142.928 88.0814 142.588 89.3732C142.247 90.665 141.559 91.8386 140.598 92.7665L127.441 105.468C126.429 106.442 125.198 107.158 123.85 107.555C123.708 107.594 123.562 107.614 123.414 107.612Z" fill="#1F75FE"/>
<path d="M123.838 104.494L126.507 114.554L148.68 119.466L147.243 114.349L151.376 109.947L146.832 102.441L123.838 104.494Z" fill="#FFB8B8"/>
<path d="M121.876 241.718H117.544L115.483 225.009H121.876V241.718Z" fill="#FFB8B8"/>
<path d="M124.163 249.224H121.056L120.502 246.291L119.081 249.224H110.842C110.447 249.224 110.062 249.098 109.744 248.864C109.426 248.63 109.191 248.3 109.073 247.923C108.956 247.546 108.962 247.141 109.091 246.768C109.219 246.395 109.464 246.072 109.789 245.848L116.369 241.304V238.338L123.29 238.751L124.163 249.224Z" fill="black"/>
<path d="M176.172 238.038L172.146 239.64L164.051 224.878L169.991 222.514L176.172 238.038Z" fill="#FFB8B8"/>
<path d="M181.072 244.166L178.185 245.315L176.585 242.795L176.351 246.045L168.695 249.093C168.328 249.239 167.924 249.264 167.542 249.164C167.16 249.064 166.82 248.845 166.571 248.538C166.322 248.231 166.178 247.853 166.16 247.458C166.141 247.064 166.25 246.674 166.469 246.345L170.901 239.689L169.805 236.934L176.388 234.758L181.072 244.166Z" fill="black"/>
<path d="M151.286 111.115L150.875 110.759C150.754 110.654 138.599 100.401 123.441 109.974L122.95 110.284L119.845 96.6246C119.484 95.0541 119.566 93.414 120.083 91.8874C120.599 90.3608 121.53 89.0078 122.771 87.9793L133.714 78.8745L137.552 76.9553L137.065 73.7877C136.972 73.1649 137.094 72.5287 137.412 71.9852C137.73 71.4416 138.225 71.0234 138.814 70.8002L144.778 68.5639C145.445 68.3106 146.184 68.328 146.838 68.6124C147.492 68.8968 148.009 69.4256 148.279 70.086L148.911 71.6154L150.264 71.1392C151.085 70.8399 151.957 70.7059 152.829 70.7449C153.702 70.7839 154.558 70.9952 155.349 71.3666C156.142 71.7511 156.846 72.2978 157.414 72.9713C157.983 73.6448 158.404 74.4301 158.65 75.2764C160.976 83.1451 160.352 91.5922 156.895 99.0338L151.286 111.115Z" fill="#1F75FE"/>
<path d="M123.547 234.042H114.587L117.063 191.943L115.253 163.407L115.256 163.384L122.009 122.479C122.54 119.253 123.975 116.244 126.148 113.802L126.23 113.71L148.827 119.291L151.099 124.471C158.857 129.085 161.307 155.105 161.408 156.213L164.692 188.649L172.727 228.403L167.069 231.449L166.974 231.26L149.112 195.742L137.832 158.286L130.608 191.998L123.547 234.042Z" fill="black"/>
<path d="M159.692 145.026C159.279 144.611 158.961 144.11 158.763 143.559C158.564 143.007 158.489 142.419 158.542 141.836C158.595 141.252 158.775 140.688 159.07 140.182C159.365 139.675 159.768 139.24 160.249 138.906L153.868 107.212L160.915 109.475L166.022 140.131C166.53 140.977 166.709 141.979 166.526 142.949C166.344 143.918 165.812 144.787 165.031 145.39C164.251 145.994 163.277 146.29 162.292 146.223C161.308 146.156 160.383 145.73 159.692 145.026Z" fill="#FFB6B6"/>
<path d="M150.27 77.9703L154.642 74.6701C154.642 74.6701 158.499 74.397 159.182 81.3523C159.865 88.3076 161.268 101.862 161.268 101.862L167.958 132.848L158.697 134.881L151.531 101.442L147.233 91.5115L150.27 77.9703Z" fill="#1F75FE"/>
<path d="M137.192 66.9686C143.083 66.9686 147.859 62.1932 147.859 56.3024C147.859 50.4116 143.083 45.6361 137.192 45.6361C131.301 45.6361 126.526 50.4116 126.526 56.3024C126.526 62.1932 131.301 66.9686 137.192 66.9686Z" fill="#FFB8B8"/>
<path d="M143.283 45.9495C141.441 44.1261 138.953 43.1047 136.361 43.1078H134.308C131.695 43.1078 129.188 44.1461 127.34 45.9942C125.492 47.8423 124.454 50.3489 124.454 52.9625C126.247 54.5169 134.928 54.1977 140.057 53.7837C139.689 59.1272 135.15 64.3779 136.361 67.3339H156.892V65.2808C158.65 56.2597 152.087 48.7348 143.283 45.9495Z" fill="black"/>
<path d="M50.7487 184.974C54.3771 184.974 57.3185 182.033 57.3185 178.405C57.3185 174.776 54.3771 171.835 50.7487 171.835C47.1203 171.835 44.1789 174.776 44.1789 178.405C44.1789 182.033 47.1203 184.974 50.7487 184.974Z" fill="#1F75FE"/>
<path d="M212.735 210.638C215.683 210.638 218.073 208.248 218.073 205.3C218.073 202.352 215.683 199.962 212.735 199.962C209.787 199.962 207.397 202.352 207.397 205.3C207.397 208.248 209.787 210.638 212.735 210.638Z" fill="#1F75FE"/>
<path d="M187.688 99.3617C190.636 99.3617 193.026 96.9718 193.026 94.0237C193.026 91.0756 190.636 88.6858 187.688 88.6858C184.74 88.6858 182.35 91.0756 182.35 94.0237C182.35 96.9718 184.74 99.3617 187.688 99.3617Z" fill="#1F75FE"/>
<path d="M78.402 46.7007C81.5503 39.4076 84.0949 31.1423 82.1223 23.1827C80.5786 16.9535 76.1557 10.9818 69.6828 9.38939C66.3524 8.61942 62.8615 8.96067 59.7433 10.3611C56.625 11.7614 54.0508 14.1439 52.4138 17.1447C50.809 20.1802 50.1696 23.6334 50.581 27.0423C51.0033 30.4282 52.4771 34.1563 55.5804 35.9309C58.4135 37.5508 62.3636 37.1007 63.9856 34.0267C65.3492 31.4425 64.8185 28.122 63.0282 25.8858C60.8439 23.1573 57.309 21.9272 53.9818 21.3189C50.4844 20.6761 46.9052 20.6124 43.3871 21.1302C36.4673 22.1558 29.9267 25.6781 25.9699 31.5495C22.3132 36.9755 20.9359 44.1651 23.369 50.3645C25.7945 56.5449 31.3543 60.9104 37.501 63.0621C45.0429 65.7022 53.3287 64.7614 60.869 62.6241C62.8541 62.0613 64.8124 61.4093 66.7513 60.7044C67.4905 60.4357 67.1714 59.2449 66.4239 59.5166C59.0765 62.1874 51.1942 64.1806 43.328 63.1757C37.254 62.3998 31.2707 59.5292 27.3469 54.7503C25.4219 52.4191 24.1354 49.6279 23.6132 46.6501C23.1338 43.6129 23.3957 40.5048 24.3767 37.5907C25.3895 34.578 27.0403 31.8191 29.2164 29.5024C31.3925 27.1857 34.0427 25.3657 36.9862 24.1664C40.0568 22.8981 43.3262 22.1791 46.6456 22.0421C49.9476 21.8554 53.257 22.2386 56.429 23.1749C59.2564 24.051 62.2665 25.7606 63.2023 28.7606C63.9479 31.1507 63.388 34.334 60.8026 35.3399C60.0479 35.6024 59.2448 35.6961 58.4499 35.6145C57.655 35.5328 56.8878 35.2777 56.2022 34.8672C54.7824 33.9834 53.6643 32.6895 52.9956 31.1566C51.6916 28.2135 51.3534 24.9329 52.0297 21.7856C52.706 18.6383 54.3619 15.7862 56.7599 13.6386C59.1914 11.5873 62.2265 10.3864 65.4033 10.2187C68.477 10.0591 71.5136 10.9494 74.0147 12.7432C76.4588 14.5581 78.3919 16.9745 79.6259 19.7575C82.7028 26.3941 81.6889 33.9546 79.4297 40.674C78.8138 42.5059 78.1042 44.3049 77.3383 46.079C77.0274 46.7992 78.0883 47.4273 78.402 46.7007Z" fill="#F2F2F2"/>
<path d="M79.2862 70.6188C86.3163 70.6188 92.0152 64.9199 92.0152 57.8898C92.0152 50.8598 86.3163 45.1609 79.2862 45.1609C72.2562 45.1609 66.5573 50.8598 66.5573 57.8898C66.5573 64.9199 72.2562 70.6188 79.2862 70.6188Z" fill="white"/>
<path d="M90.7834 57.8898C90.783 60.2611 90.0496 62.5742 88.6838 64.5125C87.318 66.4509 85.3864 67.9196 83.1535 68.7178C80.9207 69.5159 78.4957 69.6044 76.2106 68.971C73.9255 68.3377 71.8921 67.0136 70.3886 65.1799C70.0444 64.7587 69.7309 64.3132 69.4506 63.847C69.1582 63.3577 68.8966 62.8505 68.6675 62.3285C68.4349 61.7566 68.2459 61.1679 68.1021 60.5675C67.9615 60.0179 67.8698 59.4571 67.8279 58.8914C67.6226 56.5108 68.1622 54.1252 69.372 52.0646C70.5818 50.0041 72.4021 48.3704 74.581 47.3896C76.1998 46.6656 77.964 46.3254 79.736 46.3955C81.508 46.4656 83.2398 46.944 84.7965 47.7936C86.3531 48.6431 87.6924 49.8408 88.71 51.2932C89.7276 52.7455 90.3959 54.4133 90.6628 56.1665C90.6887 56.326 90.689 56.3333 90.6964 56.3954C90.7159 56.5594 90.7319 56.7237 90.7446 56.8883C90.7705 57.2217 90.7815 57.5556 90.7834 57.8898C90.7922 59.4747 93.2559 59.4781 93.2471 57.8899C93.2557 54.2769 91.8674 50.8005 89.3724 48.1874C86.8774 45.5743 83.4688 44.0268 79.8593 43.8685C76.2498 43.7103 72.7189 44.9534 70.0047 47.338C67.2905 49.7227 65.6032 53.0642 65.2955 56.6641C64.9879 60.2639 66.0837 63.8433 68.3539 66.6539C70.6241 69.4646 73.8928 71.2888 77.4768 71.7453C81.0608 72.2018 84.6826 71.2552 87.5848 69.1034C90.4871 66.9516 92.4452 63.7611 93.0497 60.1991C93.1731 59.4354 93.2391 58.6635 93.2471 57.8899C93.2559 56.3043 90.7922 56.3024 90.7834 57.8898Z" fill="#F2F2F2"/>
<path d="M84.795 54.3636L84.7937 54.3606C85.3128 54.0477 85.7011 53.5575 85.8866 52.9805C85.4076 53.265 84.8844 53.4673 84.3387 53.5791C84.0763 53.2302 83.736 52.9474 83.3451 52.7531C82.9541 52.5589 82.5232 52.4586 82.0866 52.4602C81.297 52.4603 80.5398 52.7741 79.9815 53.3326C79.4233 53.891 79.1097 54.6484 79.1098 55.438L79.1101 55.4792C77.4433 55.2512 75.9255 54.3981 74.8643 53.0928C74.8041 53.0189 74.7231 52.9649 74.6319 52.9375C74.5406 52.9102 74.4433 52.9109 74.3524 52.9394C74.2896 52.9477 74.2294 52.9699 74.1762 53.0042C74.123 53.0386 74.0781 53.0844 74.0448 53.1383C73.7968 53.6018 73.687 54.1268 73.7286 54.6509C73.7279 55.1201 73.8403 55.5825 74.0562 55.999C73.9583 56.0177 73.87 56.07 73.8065 56.1468C73.7429 56.2236 73.7082 56.3202 73.7082 56.4199V56.4521C73.7077 56.8685 73.7962 57.2802 73.9678 57.6596C74.1393 58.039 74.39 58.3774 74.703 58.652L74.6924 58.6635C74.6432 58.7192 74.6093 58.7867 74.594 58.8593C74.5787 58.932 74.5826 59.0074 74.6053 59.0782C74.7324 59.4726 74.9414 59.8357 75.2188 60.1436C75.4961 60.4515 75.8354 60.6972 76.2144 60.8647C75.4224 61.1977 74.5561 61.3147 73.704 61.2036C73.6223 61.194 73.5394 61.2081 73.4655 61.2443C73.3915 61.2805 73.3295 61.3373 73.287 61.4078C73.272 61.4251 73.2583 61.4435 73.2459 61.4628C73.2121 61.5154 73.1891 61.5742 73.178 61.6357C73.167 61.6972 73.1681 61.7603 73.1815 61.8214C73.1948 61.8825 73.22 61.9403 73.2557 61.9916C73.2914 62.0429 73.3369 62.0867 73.3895 62.1205C74.6095 62.9048 76.0295 63.321 77.4798 63.3195C82.3982 63.3195 85.0719 59.2375 85.0719 55.7279C85.0718 55.5589 85.0593 55.3901 85.0343 55.2229C85.4986 54.8768 85.9003 54.454 86.2221 53.9726L86.2232 53.971C85.7692 54.1719 85.2879 54.3042 84.795 54.3636Z" fill="#1F75FE"/>
<path d="M79.6968 26.6833C86.7269 26.6833 92.4258 20.9843 92.4258 13.9543C92.4258 6.9243 86.7269 1.22534 79.6968 1.22534C72.6668 1.22534 66.9679 6.9243 66.9679 13.9543C66.9679 20.9843 72.6668 26.6833 79.6968 26.6833Z" fill="white"/>
<path d="M91.194 13.9543C91.1936 16.3255 90.4603 18.6387 89.0944 20.577C87.7286 22.5153 85.797 23.9841 83.5641 24.7822C81.3313 25.5804 78.9063 25.6688 76.6212 25.0355C74.3361 24.4022 72.3027 23.0781 70.7992 21.2444C70.455 20.8232 70.1415 20.3777 69.8613 19.9114C69.5688 19.4221 69.3072 18.915 69.0781 18.393C68.8455 17.8211 68.6565 17.2324 68.5127 16.632C68.3721 16.0824 68.2804 15.5215 68.2385 14.9558C68.0332 12.5752 68.5728 10.1896 69.7826 8.12909C70.9925 6.06855 72.8127 4.43489 74.9916 3.45409C76.6104 2.73011 78.3747 2.38989 80.1466 2.45996C81.9186 2.53003 83.6505 3.0085 85.2071 3.85805C86.7637 4.7076 88.1031 5.90526 89.1206 7.35763C90.1382 8.81 90.8065 10.4778 91.0735 12.231C91.0993 12.3905 91.0996 12.3978 91.107 12.4599C91.1265 12.6238 91.1426 12.7881 91.1552 12.9528C91.1811 13.2862 91.1921 13.6201 91.194 13.9543C91.2028 15.5391 93.6665 15.5425 93.6577 13.9543C93.6663 10.3414 92.278 6.86496 89.783 4.25186C87.288 1.63876 83.8794 0.0913038 80.2699 -0.0669878C76.6604 -0.225279 73.1295 1.01785 70.4153 3.4025C67.7011 5.78715 66.0138 9.1287 65.7061 12.7285C65.3985 16.3284 66.4943 19.9078 68.7645 22.7184C71.0347 25.529 74.3035 27.3533 77.8875 27.8098C81.4715 28.2663 85.0932 27.3197 87.9954 25.1678C90.8977 23.016 92.8558 19.8256 93.4603 16.2636C93.5837 15.4998 93.6497 14.7279 93.6577 13.9543C93.6665 12.3687 91.2028 12.3669 91.194 13.9543Z" fill="#F2F2F2"/>
<path d="M82.545 15.2989L82.9343 12.7615H80.5022C80.4203 10.6484 80.3383 9.46315 83.0367 9.74702V7.59008C78.995 6.70038 77.3092 8.74904 77.7629 12.7615H75.5357V15.2989H77.7629V21.1778C78.6624 21.395 79.6 21.4011 80.5022 21.1955V15.2989H82.545Z" fill="#1F75FE"/>
<path d="M30.4234 71.8507C37.4534 71.8507 43.1524 66.1517 43.1524 59.1217C43.1524 52.0917 37.4534 46.3927 30.4234 46.3927C23.3934 46.3927 17.6944 52.0917 17.6944 59.1217C17.6944 66.1517 23.3934 71.8507 30.4234 71.8507Z" fill="white"/>
<path d="M41.9205 59.1217C41.9201 61.4929 41.1868 63.806 39.8209 65.7444C38.4551 67.6827 36.5235 69.1515 34.2907 69.9496C32.0578 70.7477 29.6328 70.8362 27.3477 70.2029C25.0627 69.5696 23.0292 68.2454 21.5258 66.4118C21.1815 65.9905 20.868 65.5451 20.5878 65.0788C20.2953 64.5895 20.0338 64.0824 19.8046 63.5604C19.5721 62.9884 19.3831 62.3998 19.2392 61.7993C19.0987 61.2498 19.0069 60.6889 18.9651 60.1232C18.7598 57.7426 19.2994 55.357 20.5092 53.2965C21.719 51.2359 23.5392 49.6023 25.7181 48.6215C27.337 47.8975 29.1012 47.5573 30.8732 47.6273C32.6452 47.6974 34.377 48.1759 35.9336 49.0254C37.4903 49.875 38.8296 51.0726 39.8472 52.525C40.8648 53.9774 41.5331 55.6452 41.8 57.3983C41.8258 57.5579 41.8262 57.5652 41.8335 57.6273C41.853 57.7912 41.8691 57.9555 41.8817 58.1202C41.9077 58.4535 41.9187 58.7874 41.9205 59.1217C41.9293 60.7065 44.393 60.7099 44.3842 59.1217C44.3929 55.5088 43.0046 52.0323 40.5095 49.4192C38.0145 46.8061 34.6059 45.2587 30.9965 45.1004C27.387 44.9421 23.856 46.1852 21.1418 48.5699C18.4276 50.9545 16.7403 54.2961 16.4327 57.8959C16.125 61.4957 17.2208 65.0751 19.491 67.8858C21.7612 70.6964 25.03 72.5207 28.614 72.9772C32.198 73.4337 35.8197 72.487 38.722 70.3352C41.6242 68.1834 43.5823 64.993 44.1869 61.4309C44.3102 60.6672 44.3762 59.8953 44.3842 59.1217C44.393 57.5361 41.9293 57.5342 41.9205 59.1217Z" fill="#F2F2F2"/>
<path d="M30.7269 65.326C30.2456 65.326 29.7712 65.3119 29.3203 65.2985C28.7767 65.2823 28.2635 65.2674 27.827 65.2797C27.3558 65.3049 26.8845 65.2325 26.4427 65.0668C26.0009 64.9011 25.5981 64.6459 25.2597 64.3171C23.9081 62.9238 23.9845 60.3403 24.0461 58.2642C24.0621 57.7206 24.0773 57.2072 24.0649 56.7709C24.0397 56.2997 24.1122 55.8285 24.2778 55.3867C24.4435 54.9449 24.6987 54.5422 25.0275 54.2037C26.4209 52.8522 29.0049 52.9292 31.0806 52.99C31.6244 53.006 32.1378 53.0216 32.5739 53.0088L32.5859 53.0086C33.0552 52.9846 33.5243 53.0577 33.9639 53.2233C34.4036 53.389 34.8043 53.6437 35.141 53.9714C36.4928 55.3646 36.4162 57.9482 36.3546 60.0243C36.3386 60.5678 36.3233 61.0813 36.3358 61.5176C36.361 61.9888 36.2885 62.4601 36.1229 62.9019C35.9572 63.3437 35.702 63.7465 35.3732 64.0849C34.2825 65.1429 32.462 65.326 30.7269 65.326Z" fill="#1F75FE"/>
<path d="M33.3013 56.7589C33.1153 56.7534 32.9388 56.6756 32.8093 56.5419C32.6798 56.4083 32.6076 56.2294 32.608 56.0433C32.6084 55.8572 32.6814 55.6786 32.8115 55.5455C32.9416 55.4124 33.1184 55.3353 33.3045 55.3307C33.4905 55.3362 33.667 55.414 33.7965 55.5477C33.926 55.6813 33.9982 55.8602 33.9978 56.0463C33.9974 56.2324 33.9244 56.411 33.7943 56.5441C33.6643 56.6772 33.4874 56.7542 33.3013 56.7589Z" fill="#E6E6E6"/>
<path d="M30.2004 62.2418C29.5878 62.2418 28.989 62.0601 28.4796 61.7198C27.9703 61.3795 27.5733 60.8958 27.3388 60.3298C27.1044 59.7639 27.043 59.1411 27.1625 58.5403C27.282 57.9394 27.577 57.3875 28.0101 56.9544C28.4433 56.5212 28.9952 56.2262 29.596 56.1066C30.1968 55.9871 30.8196 56.0484 31.3855 56.2828C31.9515 56.5173 32.4353 56.9142 32.7756 57.4236C33.116 57.9329 33.2976 58.5317 33.2977 59.1443C33.2968 59.9655 32.9702 60.7528 32.3895 61.3335C31.8089 61.9142 31.0216 62.2408 30.2004 62.2418ZM30.2004 56.8683C29.7502 56.8683 29.3102 57.0018 28.9358 57.2519C28.5615 57.502 28.2698 57.8575 28.0975 58.2734C27.9252 58.6893 27.8801 59.1469 27.968 59.5885C28.0558 60.03 28.2726 60.4356 28.5909 60.7539C28.9092 61.0722 29.3148 61.289 29.7563 61.3768C30.1978 61.4646 30.6555 61.4196 31.0714 61.2473C31.4873 61.075 31.8428 60.7832 32.0929 60.4089C32.343 60.0346 32.4765 59.5945 32.4764 59.1444C32.4758 58.5409 32.2357 57.9624 31.809 57.5357C31.3824 57.109 30.8038 56.869 30.2004 56.8683Z" fill="#E6E6E6"/>
</g>
<defs>
<clipPath id="clip0_1_2">
<rect width="256.908" height="250" fill="white"/>
</clipPath>
</defs>
</svg>
